<?xml version="1.0" standalone="no"?>
<!DOCTYPE svg PUBLIC "-//W3C//DTD SVG 20010904//EN"
 "http://www.w3.org/TR/2001/REC-SVG-20010904/DTD/svg10.dtd">
<svg version="1.0" xmlns="http://www.w3.org/2000/svg"
 width="2749.000000pt" height="1565.000000pt" viewBox="0 0 2749.000000 1565.000000"
 preserveAspectRatio="xMidYMid meet">
<metadata>
Created by potrace 1.16, written by Peter Selinger 2001-2019
</metadata>
<g transform="translate(0.000000,1565.000000) scale(0.100000,-0.100000)"
fill="#000000" stroke="none">
<path d="M7745 15379 c-166 -15 -453 -85 -513 -125 -13 -9 -49 -22 -80 -30
-50 -13 -240 -103 -387 -183 -136 -75 -174 -96 -215 -125 -25 -17 -65 -42 -89
-55 -48 -25 -130 -81 -159 -107 -9 -9 -64 -47 -122 -85 -110 -73 -188 -128
-309 -219 -41 -30 -99 -73 -131 -95 -31 -22 -70 -51 -87 -65 -17 -14 -43 -34
-58 -45 -16 -11 -57 -42 -91 -70 -35 -27 -89 -70 -121 -95 -57 -45 -165 -137
-278 -235 -33 -29 -87 -75 -120 -102 -145 -121 -566 -537 -672 -664 -34 -42
-74 -84 -88 -93 -14 -9 -25 -23 -25 -31 0 -8 -11 -21 -24 -30 -13 -9 -70 -74
-127 -146 -57 -72 -128 -159 -157 -193 -29 -33 -65 -79 -80 -101 -15 -22 -64
-87 -110 -143 -46 -57 -94 -122 -108 -144 -14 -22 -46 -65 -70 -95 -24 -29
-44 -58 -44 -63 0 -6 -15 -27 -33 -47 -38 -44 -87 -118 -87 -132 0 -5 -4 -11
-8 -13 -13 -5 -232 -309 -232 -322 0 -7 -87 -133 -121 -177 -16 -20 -29 -41
-30 -45 0 -5 -20 -36 -45 -69 -62 -85 -134 -192 -134 -199 0 -4 -19 -32 -42
-64 -43 -56 -56 -76 -113 -167 -70 -112 -166 -255 -175 -260 -6 -3 -19 -28
-31 -55 -11 -27 -29 -56 -40 -66 -10 -9 -19 -23 -19 -31 0 -7 -16 -30 -35 -52
-19 -21 -35 -45 -35 -54 0 -9 -4 -18 -9 -21 -13 -9 -121 -172 -121 -184 0 -6
-23 -41 -50 -78 -28 -37 -50 -72 -50 -79 0 -7 -7 -18 -16 -26 -9 -7 -23 -27
-32 -44 -9 -18 -44 -73 -77 -123 -33 -50 -73 -115 -90 -143 -33 -58 -34 -59
-88 -142 -20 -31 -37 -61 -37 -66 0 -5 -7 -15 -16 -22 -9 -7 -27 -37 -40 -67
-13 -29 -33 -65 -44 -80 -40 -52 -100 -147 -100 -159 0 -13 -34 -69 -69 -115
-12 -14 -21 -32 -21 -40 0 -7 -9 -24 -20 -38 -11 -14 -20 -28 -20 -33 0 -4
-16 -30 -36 -58 -20 -28 -51 -79 -69 -113 -18 -33 -51 -97 -75 -141 -23 -44
-51 -91 -61 -104 -11 -13 -19 -30 -19 -38 0 -14 -8 -29 -67 -120 -18 -28 -33
-58 -33 -65 0 -7 -6 -22 -14 -33 -7 -11 -17 -31 -21 -44 -4 -14 -20 -42 -36
-64 -16 -22 -29 -45 -29 -51 0 -7 -7 -21 -15 -31 -22 -29 -205 -389 -227 -449
-11 -28 -35 -95 -54 -149 -19 -53 -38 -105 -44 -115 -12 -21 -105 -302 -119
-357 -75 -306 -89 -374 -117 -585 -23 -174 -23 -546 1 -690 32 -197 35 -215
50 -272 8 -32 21 -82 29 -110 7 -29 25 -82 39 -118 14 -36 28 -76 33 -90 28
-96 185 -325 294 -427 42 -40 108 -73 205 -103 22 -7 46 -17 53 -23 18 -14 95
-12 128 5 17 8 31 25 36 44 5 19 23 43 45 59 58 43 268 257 286 290 8 17 24
39 36 49 12 11 21 24 21 31 0 6 14 24 30 40 17 16 30 33 30 38 0 5 24 37 53
70 29 34 80 97 112 140 33 43 82 106 108 140 26 34 52 72 57 85 13 31 111 162
122 162 4 0 8 6 8 13 0 8 9 22 20 32 11 10 22 27 26 38 9 27 68 113 106 153
16 17 37 45 46 61 62 109 175 275 214 312 20 20 43 54 52 76 9 21 20 42 24 45
4 3 12 12 17 22 6 9 42 63 80 119 39 57 75 111 80 120 31 53 132 197 159 228
18 20 38 50 45 68 7 17 21 39 32 49 10 9 19 21 19 26 0 18 104 165 155 218 29
30 56 68 59 84 4 16 23 50 42 75 19 25 52 73 73 106 21 33 55 86 76 118 31 48
36 61 24 68 -12 8 -12 10 0 18 8 5 19 7 26 5 13 -5 85 82 85 102 0 7 9 18 20
24 11 6 20 16 20 23 1 7 21 37 45 67 l45 55 -30 3 c-16 2 -30 9 -30 16 0 18
21 35 36 29 8 -3 14 1 14 10 0 21 18 31 34 18 9 -8 22 -1 49 27 54 54 97 112
103 139 4 13 19 37 35 53 16 15 29 35 29 44 0 8 14 24 30 36 17 12 30 27 30
34 0 8 7 19 16 27 14 11 13 14 -8 25 l-23 13 23 1 c12 0 22 4 22 10 0 5 6 7
14 4 9 -3 22 6 33 23 10 15 26 37 35 47 10 11 18 23 18 27 0 5 13 21 30 36 18
16 31 41 33 59 5 41 14 54 38 54 21 0 26 26 7 33 -8 3 -3 9 12 15 31 13 103
87 123 127 8 17 27 41 41 54 14 14 26 32 26 41 0 9 14 30 31 48 32 33 69 97
69 119 0 7 4 13 10 13 5 0 12 11 16 25 4 15 13 25 24 25 24 0 80 65 80 93 0
12 9 28 21 35 14 9 18 19 14 35 -4 14 -3 17 2 10 7 -9 28 12 72 71 34 46 71
92 82 102 10 9 19 25 19 35 0 10 13 33 28 51 15 18 46 58 67 88 22 30 63 83
92 118 29 35 53 70 53 78 0 8 9 23 20 34 12 12 43 58 69 103 27 45 72 108 99
139 28 32 54 67 57 79 4 12 27 48 51 79 24 32 44 63 44 68 0 6 18 32 40 57 23
26 52 70 67 98 14 29 39 71 54 94 16 23 29 46 29 51 0 5 7 15 15 22 8 7 15 21
15 31 0 10 11 28 23 41 29 28 87 114 88 131 0 7 14 32 29 57 16 25 39 63 51
85 12 22 34 58 49 80 15 22 42 67 60 100 18 33 44 79 57 102 12 23 23 47 23
53 0 6 14 31 30 55 17 24 30 47 30 50 0 8 54 127 77 170 9 17 21 39 27 50 6
11 18 29 27 40 9 11 20 36 24 55 4 19 38 98 76 177 38 78 69 145 69 147 0 2
18 35 40 74 22 38 40 80 40 93 0 13 14 47 30 74 16 28 30 58 30 69 0 10 9 33
19 50 10 17 22 47 26 66 4 19 14 44 21 55 8 11 14 26 14 34 0 8 11 37 24 66
24 49 48 110 66 167 4 14 20 50 35 80 37 73 105 256 105 282 0 12 4 26 9 32 5
5 21 38 36 74 14 36 30 74 35 85 47 102 158 398 224 600 33 99 45 152 50 222
l6 93 -31 35 c-28 32 -36 35 -85 35 -53 0 -53 0 -63 -37 -5 -21 -17 -89 -25
-151 -9 -62 -20 -120 -25 -130 -6 -9 -23 -57 -40 -107 -16 -49 -43 -126 -60
-170 -16 -44 -48 -132 -72 -195 -46 -128 -85 -226 -100 -253 -6 -10 -23 -60
-40 -110 -35 -108 -75 -220 -94 -262 -18 -39 -65 -162 -65 -170 0 -3 -24 -56
-54 -118 -29 -62 -61 -137 -70 -167 -21 -67 -78 -203 -87 -210 -4 -3 -11 -19
-15 -35 -4 -17 -10 -34 -14 -40 -4 -5 -17 -37 -29 -70 -13 -33 -26 -64 -31
-70 -4 -5 -23 -46 -40 -90 -17 -44 -35 -82 -39 -85 -11 -8 -164 -317 -191
-385 -13 -33 -33 -71 -45 -85 -21 -24 -145 -244 -145 -257 0 -4 -6 -14 -14
-22 -7 -9 -28 -43 -46 -76 -18 -33 -53 -91 -77 -130 -23 -38 -43 -73 -43 -77
0 -4 -33 -56 -73 -115 -40 -59 -76 -116 -80 -125 -3 -10 -22 -43 -42 -73 -19
-31 -35 -58 -35 -61 0 -3 -15 -25 -34 -48 -19 -23 -40 -53 -46 -66 -18 -41
-36 -69 -63 -99 -14 -16 -45 -58 -68 -93 -24 -35 -62 -87 -86 -116 -24 -30
-43 -58 -43 -62 0 -12 -90 -160 -113 -185 -69 -78 -110 -131 -126 -163 -11
-20 -39 -59 -62 -87 -23 -27 -55 -72 -71 -100 -16 -27 -54 -84 -84 -125 -30
-41 -61 -88 -71 -105 -9 -16 -35 -52 -58 -80 -23 -27 -61 -79 -85 -115 -24
-36 -71 -100 -104 -142 -69 -87 -112 -146 -141 -194 -11 -18 -53 -76 -94 -131
-193 -254 -219 -290 -234 -318 -8 -16 -26 -40 -40 -53 -13 -13 -32 -41 -42
-63 -10 -21 -22 -39 -26 -39 -8 0 -33 -33 -163 -215 -20 -27 -58 -84 -84 -125
-27 -41 -75 -112 -108 -156 -137 -189 -241 -336 -304 -429 -22 -33 -46 -67
-53 -75 -8 -8 -21 -26 -29 -40 -36 -59 -150 -231 -196 -295 -28 -38 -98 -140
-157 -225 -208 -303 -264 -385 -272 -395 -4 -5 -34 -49 -66 -97 -32 -47 -75
-108 -97 -135 -21 -28 -69 -94 -106 -148 -36 -55 -91 -132 -123 -173 -31 -40
-67 -90 -81 -110 -45 -67 -104 -147 -112 -150 -5 -2 -22 -25 -40 -50 -17 -26
-49 -66 -70 -89 -21 -24 -38 -46 -38 -50 0 -5 -15 -25 -33 -45 -17 -20 -45
-54 -62 -74 -119 -148 -359 -394 -413 -423 -12 -6 -39 -8 -68 -4 -40 5 -57 15
-117 72 -38 36 -76 80 -83 98 -14 31 -30 48 -49 48 -5 0 -20 22 -33 49 -13 26
-29 54 -35 61 -7 7 -24 46 -37 86 -12 41 -25 81 -28 89 -3 8 -6 20 -7 25 0 6
-7 21 -14 34 -27 50 -55 174 -92 416 -16 101 -15 452 1 565 6 47 13 103 15
125 4 47 19 139 42 245 8 41 23 113 32 160 10 47 23 96 30 108 13 25 42 142
45 180 0 12 4 22 7 22 3 0 13 17 22 38 16 35 25 60 67 182 53 154 235 539 341
722 22 36 39 72 39 78 0 6 11 28 25 48 14 20 25 40 25 45 0 5 11 23 24 40 13
18 39 61 57 97 18 36 44 83 57 104 13 22 34 58 47 80 12 23 39 73 60 111 21
39 41 72 45 75 6 5 42 67 90 156 15 28 46 79 69 113 22 34 41 66 41 71 0 10
77 137 98 163 9 9 20 26 26 36 12 21 103 173 123 206 7 11 18 31 25 45 7 14
24 41 38 60 15 19 30 43 33 54 10 25 118 190 129 194 4 2 8 7 8 12 0 4 16 31
35 60 19 29 35 58 35 66 0 8 5 14 10 14 6 0 10 7 10 15 0 7 6 18 14 22 15 9
106 146 106 161 0 5 7 15 15 22 8 7 15 19 15 27 0 8 13 28 30 46 16 18 30 38
30 44 0 7 20 39 44 70 24 32 50 72 59 90 9 17 48 76 87 131 38 54 70 105 70
111 0 7 13 29 28 49 57 74 130 179 157 228 16 27 44 69 62 93 18 24 33 49 33
56 0 7 7 18 16 26 8 7 59 78 112 158 53 80 102 152 109 159 6 6 62 87 124 180
61 92 128 188 148 214 115 150 277 371 366 498 22 31 70 92 107 136 37 43 96
115 132 159 86 105 113 137 161 189 22 24 74 81 115 127 161 178 219 239 374
392 186 182 213 207 223 207 4 0 26 18 48 39 22 22 74 70 115 107 41 36 100
90 130 118 69 65 142 125 250 206 47 34 89 69 93 77 4 7 29 24 55 38 26 13 79
51 117 84 39 34 75 61 81 61 5 0 19 8 30 18 23 20 170 133 193 147 67 43 99
65 115 84 11 11 24 21 30 21 6 0 36 18 66 40 126 91 140 100 152 100 6 0 62
33 123 74 60 40 148 94 195 120 47 26 92 51 100 55 99 56 480 215 553 231 23
5 83 18 132 29 341 74 716 29 901 -107 293 -215 415 -516 413 -1017 -1 -282
-13 -516 -29 -545 -6 -10 -10 -36 -10 -57 0 -73 -48 -395 -71 -468 -5 -16 -18
-79 -29 -140 -12 -60 -30 -129 -40 -152 -11 -24 -20 -49 -20 -57 0 -7 -7 -36
-14 -62 -8 -27 -22 -74 -30 -104 -37 -133 -70 -238 -87 -275 -10 -22 -34 -80
-53 -130 -19 -49 -41 -103 -50 -120 -9 -16 -16 -34 -16 -39 0 -9 -118 -246
-161 -323 -13 -23 -70 -116 -126 -207 -57 -90 -103 -169 -103 -175 0 -11 -85
-127 -98 -133 -11 -5 -92 -116 -92 -126 0 -5 -9 -17 -21 -28 -12 -10 -37 -43
-57 -72 -19 -30 -41 -56 -48 -59 -8 -3 -46 -44 -85 -91 -40 -48 -80 -94 -88
-102 -9 -8 -38 -42 -65 -75 -27 -33 -77 -86 -111 -117 -34 -32 -80 -80 -101
-108 -21 -27 -42 -50 -46 -50 -4 0 -34 -28 -66 -62 -89 -96 -122 -129 -192
-188 -35 -30 -97 -86 -136 -125 -40 -38 -91 -86 -115 -105 -42 -35 -100 -87
-191 -175 -25 -25 -75 -66 -110 -92 -35 -25 -73 -56 -84 -67 -40 -39 -149
-126 -159 -126 -4 0 -46 -36 -93 -80 -48 -44 -90 -80 -94 -80 -4 0 -18 -10
-31 -22 -13 -13 -62 -51 -110 -86 -48 -35 -108 -81 -133 -103 -25 -22 -51 -38
-56 -37 -5 2 -33 46 -61 98 -49 89 -54 95 -92 103 -73 16 -111 4 -174 -55 -32
-29 -105 -93 -161 -143 -170 -148 -329 -312 -433 -447 -53 -70 -115 -148 -137
-173 -37 -43 -52 -85 -31 -85 5 0 11 -9 14 -20 3 -11 13 -23 24 -26 10 -3 28
-10 39 -16 44 -21 198 34 314 112 25 16 50 30 57 30 7 0 29 11 49 25 20 14 42
25 49 25 6 0 20 9 31 21 10 12 33 29 50 38 59 31 309 199 335 224 21 22 29 24
42 14 14 -11 97 -230 97 -257 0 -7 11 -49 25 -94 35 -115 64 -297 76 -471 17
-236 -4 -661 -45 -935 -8 -52 -20 -149 -26 -215 -10 -108 -24 -204 -50 -350
-5 -27 -14 -95 -20 -150 -7 -55 -28 -194 -47 -310 -41 -245 -54 -499 -28 -558
7 -17 17 -43 20 -57 22 -93 252 -137 378 -74 37 19 143 107 172 144 11 14 53
59 93 100 41 41 95 99 120 129 26 30 66 75 90 100 23 25 42 50 42 55 0 6 18
29 41 51 29 28 39 45 36 61 -2 15 0 21 8 18 15 -6 135 110 135 130 0 8 18 33
40 56 22 23 40 46 40 51 0 5 11 16 25 25 14 9 25 23 25 31 0 8 9 17 20 20 11
3 20 9 20 14 0 4 26 32 57 61 89 83 132 129 138 149 4 11 11 19 16 19 5 0 14
11 19 25 5 14 14 25 19 25 5 0 12 13 16 29 3 16 12 28 20 27 14 -1 120 88 243
204 15 14 43 37 62 50 19 13 58 42 87 64 28 23 68 52 88 66 20 14 57 42 83 63
26 20 65 47 87 58 22 12 47 27 56 35 15 14 174 94 186 94 8 0 0 -35 -55 -260
-95 -381 -106 -457 -99 -665 6 -163 13 -190 72 -280 38 -57 65 -82 141 -131
66 -42 84 -49 204 -81 171 -45 424 -34 557 23 17 8 52 18 77 23 26 5 63 19 84
33 20 13 66 35 102 48 69 24 133 57 266 133 45 26 88 47 96 47 8 0 23 9 33 20
10 11 23 20 28 20 14 0 105 59 137 87 14 13 30 23 36 23 6 0 21 11 34 25 13
14 31 25 40 25 21 0 120 88 120 107 0 7 11 18 24 23 13 4 32 20 44 34 11 14
22 26 25 26 3 0 3 -66 0 -147 -6 -156 8 -334 30 -393 34 -89 113 -182 207
-242 176 -112 470 -109 728 9 30 14 64 26 77 27 13 1 43 12 67 23 24 12 63 29
88 39 25 10 61 28 80 41 19 13 40 23 47 23 7 0 13 5 13 10 0 6 6 10 14 10 8 0
59 34 114 75 55 41 104 75 109 75 9 0 54 49 73 80 15 25 27 0 39 -85 15 -97
46 -203 69 -230 10 -11 28 -42 42 -68 71 -136 217 -239 450 -315 144 -47 278
-63 435 -52 171 12 214 23 350 92 77 39 145 111 145 154 0 75 -102 218 -195
276 -36 21 -44 22 -69 3 -16 -12 -18 -19 -9 -37 42 -93 51 -119 57 -166 8 -66
-2 -86 -64 -117 -72 -37 -130 -54 -212 -65 -162 -21 -275 -8 -436 49 -129 46
-222 127 -292 255 -36 65 -69 160 -70 197 0 15 -7 46 -16 70 -13 36 -15 70
-10 179 3 74 10 161 16 193 13 70 7 80 -55 96 -58 14 -97 14 -118 -2 -10 -7
-26 -44 -36 -82 -22 -84 -92 -210 -152 -273 -43 -45 -188 -157 -260 -200 -59
-36 -249 -128 -329 -159 -41 -17 -124 -43 -185 -58 -95 -24 -122 -27 -210 -22
-88 4 -108 8 -146 32 -153 95 -200 210 -199 484 0 153 18 264 74 461 14 47 28
101 31 120 4 19 15 53 25 75 9 22 20 55 23 72 8 43 -18 61 -100 69 -57 6 -63
5 -87 -19 -14 -14 -26 -35 -26 -45 0 -25 -45 -123 -90 -196 -103 -168 -272
-353 -410 -449 -317 -221 -676 -398 -915 -451 -234 -51 -402 -21 -528 94 -83
76 -114 146 -126 285 -5 60 -7 113 -5 117 3 4 7 42 8 83 2 41 9 81 15 89 6 8
18 47 26 87 22 116 26 133 35 154 5 11 18 63 30 115 12 52 30 120 40 150 9 30
29 91 44 135 27 83 33 162 16 195 -28 53 -120 44 -267 -26 -51 -24 -97 -44
-102 -44 -4 0 -42 -21 -83 -47 -41 -27 -81 -52 -90 -58 -60 -38 -239 -163
-266 -187 -18 -15 -36 -28 -41 -28 -4 0 -30 -21 -58 -47 -27 -27 -67 -61 -89
-77 -68 -51 -213 -198 -229 -233 -9 -19 -27 -38 -40 -43 -23 -9 -115 -114
-115 -131 0 -5 -5 -9 -10 -9 -19 0 -90 -76 -233 -252 -12 -14 -47 -53 -77 -85
-30 -32 -67 -74 -81 -93 -15 -19 -56 -65 -93 -102 -36 -37 -74 -81 -84 -97
-26 -42 -282 -317 -350 -374 -138 -118 -165 -128 -202 -77 -18 25 -23 49 -27
145 -7 137 8 283 57 560 6 33 13 87 15 120 2 33 12 105 21 160 18 116 18 117
34 255 6 58 18 152 27 210 9 58 17 123 19 145 4 58 14 138 19 155 2 8 7 53 10
100 17 234 20 373 14 589 -7 198 -12 255 -34 356 -14 66 -30 143 -35 170 -15
80 -36 159 -48 180 -6 11 -20 56 -32 100 -13 44 -26 85 -31 91 -4 5 -15 36
-23 69 l-16 58 38 33 c20 18 45 36 55 39 9 4 17 10 17 15 0 4 16 17 35 29 25
15 35 27 35 46 0 22 4 25 33 25 24 0 40 8 60 31 15 17 27 37 27 44 0 12 55 40
71 37 4 -1 5 8 2 18 -4 15 0 20 15 20 11 0 26 10 35 23 8 13 26 23 42 25 36 3
48 11 41 29 -4 9 -2 11 6 7 13 -8 108 91 108 113 0 8 9 17 20 20 10 3 26 16
35 29 10 16 25 24 45 24 16 0 33 6 37 14 4 8 11 15 16 15 4 1 13 1 20 2 6 0 1
5 -13 10 -24 10 -24 11 -6 25 11 8 34 14 51 14 31 0 62 31 57 58 -2 6 6 12 17
12 11 0 26 8 33 18 7 9 27 24 43 32 47 23 145 111 145 130 0 21 31 50 54 50
10 0 20 9 23 19 3 11 17 21 33 24 29 6 48 36 29 47 -16 11 -7 41 16 54 27 15
34 26 27 44 -4 11 -1 14 11 9 9 -3 19 -2 22 3 12 19 38 11 32 -10 -7 -26 17
-26 29 0 5 11 36 41 69 68 33 26 64 57 70 67 12 23 123 135 133 135 15 0 62
62 62 81 0 10 5 19 10 19 6 0 10 7 10 15 0 8 5 16 10 16 6 1 16 2 22 3 7 0 19
13 26 29 7 15 25 33 40 41 39 20 82 65 76 80 -3 7 12 26 33 42 47 35 133 123
133 135 0 5 -5 18 -12 28 -9 15 -9 23 1 35 19 22 34 20 28 -4 -5 -21 1 -25 19
-12 22 15 169 208 166 218 -1 7 4 14 13 18 8 3 15 12 15 21 0 8 5 15 10 15 6
0 10 9 10 21 0 11 4 17 10 14 19 -12 133 141 128 174 -2 20 4 31 17 31 9 0 36
33 61 73 26 39 55 84 65 99 10 15 19 32 19 37 0 6 11 26 25 46 26 39 155 297
155 311 0 8 23 60 68 152 14 28 25 60 25 70 0 9 3 19 7 22 27 19 200 533 215
640 2 14 11 52 19 85 9 33 19 76 22 95 3 19 9 39 12 45 3 5 11 39 18 75 7 36
18 85 24 110 6 25 15 83 20 130 6 47 16 128 24 180 8 52 14 102 15 110 0 8 7
75 15 147 26 228 13 701 -23 795 -4 13 -12 46 -16 73 -8 62 -65 220 -107 300
-54 103 -143 218 -226 290 -107 94 -113 99 -153 119 -112 59 -149 76 -162 76
-8 0 -30 6 -49 14 -107 45 -398 73 -583 55z m-2245 -6539 c35 -50 25 -68 -80
-137 -52 -35 -117 -79 -145 -98 -45 -32 -105 -71 -228 -147 -46 -29 -67 -35
-67 -19 0 13 226 233 300 292 36 29 87 71 115 95 27 24 57 44 67 44 9 0 26
-14 38 -30z"/>
<path d="M20623 13054 c-24 -18 -33 -34 -33 -54 0 -41 -34 -123 -86 -207 -53
-85 -168 -190 -333 -304 -132 -90 -387 -221 -491 -250 -25 -7 -54 -18 -65 -25
-11 -7 -63 -26 -115 -43 -52 -18 -103 -36 -112 -41 -10 -6 -26 -10 -37 -10
-10 0 -36 -7 -57 -16 -22 -9 -77 -25 -124 -35 -206 -44 -272 -59 -278 -63 -4
-2 -83 -13 -177 -25 -93 -12 -199 -26 -235 -31 -78 -12 -283 -29 -435 -35
-320 -14 -527 -50 -602 -104 -35 -25 -64 -124 -59 -201 5 -70 29 -195 52 -275
16 -51 20 -68 75 -260 17 -60 44 -153 60 -205 16 -52 40 -144 54 -205 26 -118
54 -214 66 -230 4 -5 14 -50 24 -100 9 -49 25 -124 36 -165 29 -113 47 -197
53 -245 3 -22 13 -51 27 -77 5 -10 13 -55 18 -100 13 -109 29 -191 39 -197 5
-4 16 -69 26 -145 9 -77 20 -144 23 -150 10 -15 33 -140 44 -235 5 -46 14 -92
19 -102 6 -10 10 -33 10 -53 0 -19 4 -37 9 -40 4 -3 11 -36 14 -74 4 -37 14
-90 22 -118 14 -45 14 -52 -3 -84 -9 -19 -25 -41 -35 -48 -10 -8 -22 -19 -27
-25 -5 -7 -29 -35 -52 -63 -89 -105 -150 -181 -198 -246 -45 -60 -82 -104
-179 -207 -18 -20 -39 -48 -47 -63 -8 -16 -19 -28 -23 -28 -5 0 -32 -31 -60
-70 -28 -38 -58 -70 -66 -70 -8 0 -23 17 -34 38 -11 20 -36 50 -55 65 -20 15
-36 34 -36 41 0 8 -42 42 -92 76 -51 35 -113 80 -136 101 -24 21 -65 48 -90
59 -26 12 -54 26 -62 31 -46 29 -147 70 -215 89 -16 5 -43 13 -60 18 -117 40
-270 48 -305 17 -37 -33 -22 -146 39 -298 61 -151 124 -252 299 -476 57 -73
110 -143 116 -155 6 -11 19 -30 28 -41 47 -55 78 -99 78 -111 0 -7 -39 -53
-87 -102 -153 -155 -336 -345 -398 -413 -33 -35 -81 -82 -107 -104 -27 -22
-48 -43 -48 -48 0 -5 -58 -67 -130 -139 -71 -71 -130 -134 -130 -138 0 -4 -71
-80 -157 -168 -156 -157 -429 -456 -462 -504 -34 -51 -308 -340 -392 -413 -45
-40 -75 -58 -130 -78 -61 -23 -102 -66 -94 -99 7 -29 99 -78 146 -78 61 0 289
202 469 416 41 49 78 91 83 92 4 2 28 29 53 60 63 79 123 148 164 192 19 21
87 93 150 161 63 68 154 164 201 214 48 49 105 110 126 135 22 25 97 104 168
175 302 307 512 523 540 556 50 58 138 135 142 124 1 -6 44 -68 93 -138 50
-71 109 -163 131 -205 22 -43 58 -100 79 -127 21 -28 52 -79 69 -115 32 -68
50 -98 110 -190 20 -30 45 -73 55 -95 10 -22 23 -47 27 -55 59 -112 89 -163
196 -340 21 -34 29 -56 22 -59 -6 -2 -14 1 -18 7 -9 14 -26 2 -33 -23 -3 -11
-9 -28 -13 -39 -7 -15 -5 -17 13 -11 27 8 28 -6 4 -28 -23 -21 -33 -22 -26 -2
7 18 -17 20 -34 3 -10 -10 -15 -10 -20 -1 -8 14 -44 -12 -55 -40 -3 -9 -15
-20 -24 -24 -10 -4 -22 -12 -26 -19 -6 -11 -70 -47 -87 -50 -13 -2 -66 -30
-78 -41 -7 -7 -18 -13 -23 -13 -5 0 -9 -11 -9 -23 0 -23 -33 -47 -65 -47 -15
0 -70 -49 -70 -63 0 -14 -36 -36 -50 -30 -21 7 -41 -7 -24 -18 21 -13 -2 -42
-42 -54 -42 -12 -111 -79 -103 -100 4 -9 -3 -16 -20 -21 -14 -3 -26 -10 -26
-15 0 -5 -9 -9 -20 -9 -15 0 -20 -7 -20 -25 0 -15 -6 -25 -14 -25 -8 0 -21 -9
-28 -19 -8 -11 -26 -23 -40 -26 -17 -4 -28 -15 -30 -28 -2 -11 -9 -22 -15 -25
-15 -4 -17 24 -3 31 6 3 5 4 -2 3 -7 -1 -16 -14 -19 -27 -12 -47 -21 -69 -31
-69 -5 0 -31 -21 -57 -47 -27 -27 -78 -75 -114 -108 -36 -33 -63 -64 -60 -68
3 -5 -4 -11 -16 -14 -12 -3 -21 -9 -21 -14 0 -5 -5 -8 -11 -7 -6 2 -13 -13
-15 -32 -4 -32 -22 -51 -52 -56 -32 -5 -39 -13 -35 -38 4 -18 0 -28 -11 -32
-9 -3 -16 -12 -16 -20 0 -18 -35 -35 -55 -28 -13 5 -15 2 -9 -20 4 -16 2 -26
-5 -26 -6 0 -11 -6 -11 -13 0 -16 -53 -69 -66 -66 -20 3 -28 -2 -16 -10 11 -6
11 -13 3 -27 -6 -11 -15 -31 -21 -46 -5 -16 -16 -28 -25 -28 -8 0 -15 -8 -15
-17 -1 -21 -33 -63 -49 -63 -5 0 -13 -15 -16 -34 -5 -25 -15 -37 -41 -49 -28
-14 -34 -22 -32 -45 2 -33 -8 -52 -28 -52 -8 0 -14 -7 -14 -16 0 -10 -7 -14
-22 -12 -15 2 -26 -4 -34 -21 -7 -13 -16 -26 -21 -30 -7 -5 -20 -28 -42 -75
-2 -5 6 -7 18 -3 25 6 27 -5 5 -28 -9 -8 -17 -27 -18 -40 0 -14 -7 -25 -15
-25 -10 0 -12 8 -7 32 6 30 5 30 -29 -15 -36 -47 -49 -91 -21 -68 15 13 29 1
18 -15 -4 -5 -20 -14 -37 -19 -21 -8 -37 -25 -57 -65 -15 -30 -28 -58 -28 -62
0 -14 23 -9 42 9 17 15 18 15 13 1 -4 -9 -13 -19 -21 -22 -8 -3 -14 -15 -14
-26 0 -12 4 -19 9 -15 5 3 12 1 16 -4 3 -6 -13 -11 -37 -13 -41 -3 -43 -4 -42
-35 1 -23 -3 -33 -17 -36 -25 -7 -24 -27 1 -22 17 3 19 1 10 -15 -6 -11 -16
-19 -22 -17 -6 1 -12 -8 -13 -21 -1 -12 -7 -28 -13 -34 -8 -8 -9 -5 -5 11 10
39 -7 22 -31 -31 -44 -100 -47 -111 -37 -121 7 -7 14 -3 21 14 l11 24 -6 -25
c-2 -14 -5 -31 -5 -38 0 -8 -7 -11 -18 -8 -13 5 -22 -1 -32 -21 -7 -16 -21
-44 -30 -63 -10 -19 -22 -53 -26 -74 -4 -22 -13 -51 -20 -65 -8 -14 -14 -34
-14 -43 0 -9 -4 -20 -10 -23 -5 -3 -10 -20 -10 -36 0 -17 -6 -32 -15 -35 -9
-4 -15 -19 -15 -36 0 -20 4 -27 13 -22 6 4 1 -4 -11 -18 -19 -21 -22 -30 -13
-46 14 -27 14 -32 -3 -32 -7 0 -19 -12 -25 -27 -15 -39 -30 -124 -24 -140 3
-7 -1 -21 -8 -30 -12 -13 -12 -17 -1 -21 11 -3 10 -7 -2 -21 -39 -43 -97 -451
-89 -626 2 -55 4 -129 3 -165 -2 -112 44 -357 86 -460 84 -206 157 -327 264
-435 135 -138 300 -210 568 -245 109 -15 471 -8 516 9 16 6 63 14 105 17 42 3
92 12 111 19 19 7 60 16 91 19 31 4 108 23 170 42 63 19 128 39 144 43 133 38
335 103 455 146 25 9 85 36 134 61 49 24 97 44 107 44 11 0 53 16 95 35 41 19
81 35 87 35 7 0 46 18 87 40 41 22 78 40 83 40 4 0 67 29 139 65 73 36 135 65
140 65 4 0 51 20 104 45 52 25 101 45 108 45 7 0 31 12 52 27 21 14 66 37 99
50 92 37 147 64 180 87 17 12 41 26 55 32 59 26 77 33 112 44 20 6 42 18 49
26 7 9 38 29 68 45 31 16 63 33 71 37 28 16 75 40 140 71 140 68 156 77 200
106 25 17 68 41 95 54 71 34 83 40 124 63 20 11 68 37 106 58 39 21 88 50 110
65 22 14 72 42 110 61 39 19 113 59 165 90 52 31 122 70 155 87 33 17 62 33
65 37 7 9 119 80 126 80 3 0 46 25 95 55 49 30 93 55 97 55 5 0 31 16 58 35
27 19 91 56 142 81 50 25 92 50 92 55 0 5 6 9 13 9 7 0 33 10 58 21 38 19 62
35 116 79 7 6 19 10 28 10 9 0 18 7 22 15 3 9 13 15 22 13 23 -4 84 49 78 67
-7 17 13 25 34 12 10 -6 27 -4 55 10 48 24 87 46 94 54 3 3 28 16 55 30 28 13
56 30 63 37 7 6 18 12 25 12 17 0 158 70 192 95 17 12 48 32 70 44 22 12 72
39 110 61 39 21 77 39 86 39 26 1 62 47 56 71 -5 21 -5 21 13 5 20 -18 50 -14
50 6 0 7 7 20 15 30 14 15 14 18 1 32 -14 14 -11 15 29 15 l45 -1 -25 -23
c-14 -13 -25 -25 -25 -28 0 -13 109 29 140 53 19 15 53 34 75 41 56 18 94 38
135 71 19 16 39 29 45 29 11 0 71 29 110 52 105 64 145 98 115 98 -5 0 -10 7
-10 17 0 15 2 15 19 -1 24 -22 87 -12 102 15 5 11 18 19 28 19 10 0 30 9 44
20 14 11 45 29 70 39 25 11 68 36 96 55 28 20 57 36 64 36 7 0 42 20 78 43 35
24 78 47 94 51 15 4 39 16 53 26 13 11 29 17 35 13 5 -3 17 3 26 14 23 28 97
73 120 73 11 0 23 9 26 21 4 12 13 18 20 15 8 -3 28 8 46 24 17 17 36 27 42
23 5 -3 15 0 21 8 14 17 89 69 101 69 4 0 23 11 40 25 18 13 35 21 39 18 3 -4
15 3 26 15 23 24 74 49 110 54 14 2 25 9 25 18 0 8 26 29 57 45 32 17 58 36
58 43 0 6 10 12 23 12 12 0 31 7 41 15 11 8 28 13 37 10 12 -4 19 2 23 20 4
14 17 30 30 35 13 5 27 13 30 18 3 6 18 13 33 17 28 7 98 53 144 96 16 15 46
29 67 33 27 4 45 14 56 31 9 14 22 25 29 25 6 0 35 11 62 25 28 13 58 25 68
25 30 0 59 20 53 36 -4 9 3 18 18 24 13 5 25 12 27 17 5 11 76 43 94 43 8 0
15 7 15 16 0 8 14 20 30 25 17 6 30 14 30 18 0 4 16 15 35 24 21 10 35 12 35
6 0 -6 6 -9 13 -6 6 2 10 12 9 22 -3 17 -2 17 14 4 11 -8 15 -9 10 -1 -9 15
72 17 121 3 18 -5 69 -6 116 -2 76 7 98 15 211 70 69 33 132 61 140 61 8 0 18
5 22 11 3 6 31 22 60 35 30 13 54 28 54 33 0 6 20 19 45 30 25 11 45 24 45 29
0 4 25 19 55 31 30 13 55 26 55 30 0 8 73 56 133 86 20 11 35 25 33 32 -3 6 5
18 17 26 12 8 40 31 62 51 22 20 45 36 51 36 5 0 23 13 39 30 16 17 35 30 42
30 28 0 55 -90 58 -190 3 -119 19 -159 72 -182 41 -17 125 -29 141 -19 21 14
22 76 2 130 -25 65 -20 142 17 241 37 98 54 149 68 210 8 30 21 80 30 110 8
30 22 84 30 120 26 120 42 185 54 213 6 15 9 50 8 79 -3 44 -8 55 -38 79 -19
16 -37 29 -41 29 -5 0 -8 6 -8 14 0 18 -49 133 -70 166 -9 14 -30 45 -45 70
-42 66 -66 90 -104 106 -48 20 -64 18 -118 -16 -26 -17 -53 -30 -60 -30 -7 0
-21 -4 -31 -10 -9 -5 -57 -23 -107 -40 -79 -27 -272 -118 -375 -177 -47 -27
-247 -173 -339 -248 -122 -99 -114 -96 -106 -42 13 82 -28 135 -110 144 -38 5
-44 2 -64 -25 -12 -17 -27 -46 -33 -64 -27 -83 -100 -258 -128 -310 -17 -32
-50 -73 -73 -91 -37 -30 -191 -135 -411 -279 -39 -25 -82 -55 -96 -65 -14 -11
-43 -30 -65 -43 -22 -13 -58 -36 -80 -52 -76 -56 -376 -231 -383 -224 -2 3 1
25 7 50 16 66 14 93 -18 194 -39 121 -109 226 -248 372 -23 25 -43 51 -43 58
0 8 26 67 59 131 32 65 73 158 92 207 18 49 45 106 61 126 27 36 28 40 16 77
-20 59 -65 91 -127 91 -60 0 -59 1 -126 -155 -26 -60 -51 -114 -55 -120 -4 -5
-24 -55 -45 -110 -21 -55 -42 -103 -45 -108 -4 -4 -47 20 -96 53 -110 75 -194
130 -197 130 -1 0 -68 36 -147 80 -79 44 -150 80 -156 80 -7 0 -53 20 -103 45
-50 25 -94 45 -100 45 -10 0 -157 47 -186 60 -19 8 -73 25 -220 69 -38 12
-126 30 -195 41 -215 35 -232 38 -241 47 -5 5 -3 28 5 54 8 24 22 71 31 104
15 55 27 94 61 200 7 22 24 81 39 130 26 88 55 169 81 232 8 17 14 37 14 45 0
7 6 22 13 33 8 11 28 58 46 105 41 108 55 141 120 272 51 105 52 108 35 133
-31 48 -124 80 -162 57 -12 -8 -71 -119 -72 -135 0 -7 -44 -102 -115 -252 -13
-27 -44 -95 -69 -150 -56 -127 -84 -186 -95 -205 -19 -33 -110 -227 -116 -250
-5 -14 -18 -38 -30 -55 -23 -31 -65 -112 -65 -127 0 -4 -13 -27 -30 -50 -16
-22 -30 -49 -30 -59 0 -20 -35 -44 -49 -34 -14 8 -598 35 -770 35 -118 0 -167
-4 -208 -17 -34 -11 -57 -13 -61 -7 -4 5 -34 9 -67 7 -112 -4 -130 -4 -194 -4
-36 0 -70 -4 -77 -10 -8 -6 -20 -6 -37 2 -18 8 -30 8 -46 0 -12 -7 -26 -9 -31
-6 -13 8 -13 42 0 50 6 3 10 14 10 23 0 9 12 40 26 67 16 31 27 70 28 102 2
28 10 63 19 77 10 14 17 40 17 59 0 42 28 137 46 158 8 8 14 28 14 42 0 15 4
27 9 27 9 0 31 90 34 141 1 14 8 33 15 42 8 9 15 33 16 54 1 21 10 54 19 73
30 62 58 190 46 211 -7 15 -6 21 5 25 9 3 14 18 14 36 -1 16 3 33 9 36 10 7
42 144 49 207 2 17 13 64 24 105 12 41 24 86 26 100 3 14 9 41 14 60 5 19 14
64 20 100 7 36 19 84 27 107 9 23 13 51 10 63 -3 11 4 37 14 57 11 21 18 50
16 66 -2 15 0 27 5 27 12 0 10 88 -2 92 -6 2 1 20 16 41 24 37 44 107 79 282
9 44 23 107 31 139 10 39 12 62 5 69 -7 7 -6 19 3 36 7 14 17 44 23 66 24 84
35 130 40 154 10 56 80 318 88 332 4 5 13 35 21 66 8 32 22 68 30 80 7 12 14
34 14 48 0 14 4 33 10 43 32 59 236 631 244 687 1 11 7 31 13 45 6 14 7 31 3
39 -4 7 -5 43 -3 80 5 64 4 67 -29 97 -36 35 -102 55 -136 43 -14 -5 -24 -22
-32 -51 -6 -24 -19 -66 -30 -93 -11 -28 -20 -56 -20 -62 0 -12 -65 -221 -81
-258 -26 -64 -93 -280 -108 -354 -11 -47 -30 -129 -44 -181 -14 -52 -32 -120
-40 -150 -8 -30 -32 -131 -52 -225 -20 -93 -43 -186 -50 -205 -7 -19 -25 -75
-40 -125 -15 -49 -38 -115 -50 -145 -13 -30 -44 -118 -69 -195 -26 -77 -51
-149 -56 -160 -5 -11 -21 -63 -36 -115 -14 -52 -31 -100 -36 -107 -5 -6 -18
-51 -28 -100 -10 -48 -27 -113 -38 -143 -21 -57 -72 -225 -90 -295 -5 -22 -24
-80 -41 -130 -50 -145 -62 -185 -86 -280 -13 -49 -26 -98 -31 -109 -4 -11 -2
-21 7 -26 10 -7 8 -14 -12 -32 -14 -13 -31 -46 -38 -73 -7 -28 -19 -64 -27
-82 -8 -17 -14 -39 -14 -50 -1 -26 -46 -153 -59 -166 -6 -6 -11 -19 -11 -28 0
-17 -30 -94 -55 -139 -7 -14 -11 -38 -8 -53 4 -18 0 -34 -11 -46 -9 -10 -24
-40 -33 -67 -9 -27 -22 -58 -28 -69 -7 -11 -18 -40 -25 -65 -15 -54 -35 -103
-61 -151 -10 -20 -19 -42 -19 -48 0 -18 -37 -50 -47 -40 -14 14 -53 -2 -53
-22 0 -11 -4 -19 -10 -19 -5 0 -10 7 -10 16 0 12 -6 15 -22 9 -13 -3 -31 -8
-41 -9 -10 -1 -22 -8 -27 -16 -4 -7 -25 -14 -47 -15 -28 -2 -39 -7 -42 -21 -7
-39 -51 -63 -51 -29 0 8 7 15 15 15 8 0 15 3 15 8 0 10 -103 10 -115 -1 -29
-24 -171 -85 -180 -76 -14 14 -81 11 -94 -5 -13 -16 -61 -27 -61 -15 0 18 -26
8 -58 -21 -24 -22 -40 -28 -56 -24 -13 3 -43 -1 -67 -9 -24 -8 -59 -12 -77
-10 -34 6 -87 -20 -77 -37 4 -6 0 -11 -7 -11 -28 -3 -34 -5 -68 -23 -19 -11
-51 -20 -70 -20 -27 -1 -34 -5 -32 -18 1 -9 -2 -19 -8 -23 -5 -3 -10 -1 -10 4
0 17 -21 13 -36 -6 -13 -17 -15 -17 -28 1 -8 10 -18 44 -21 75 -3 31 -10 66
-16 79 -5 13 -9 36 -9 52 0 29 -9 78 -37 205 -9 39 -21 108 -28 155 -7 47 -27
150 -43 230 -16 80 -37 190 -46 245 -10 55 -26 141 -37 190 -11 50 -24 115
-29 145 -6 30 -14 75 -20 100 -5 25 -23 128 -40 230 -17 102 -40 232 -51 290
-12 58 -29 152 -40 210 l-18 104 25 43 c14 24 29 43 34 43 6 0 10 5 10 11 0
11 38 58 116 148 50 57 84 106 84 120 0 7 23 39 50 73 28 33 53 73 57 88 3 19
15 32 34 40 16 7 39 28 50 47 12 19 32 46 43 58 12 13 28 36 35 52 7 15 17 36
22 45 5 10 9 24 9 32 0 8 9 16 21 18 18 3 58 58 86 118 3 8 24 35 45 59 21 24
38 50 38 57 0 7 9 18 20 24 11 6 20 17 20 26 0 8 11 26 25 40 14 14 25 29 25
35 0 15 23 51 58 92 17 20 32 41 32 45 0 4 18 28 40 52 23 25 43 55 46 68 4
12 10 22 14 22 5 0 20 25 35 56 14 30 33 58 41 61 7 3 14 12 14 20 0 8 13 32
29 52 15 20 36 50 45 66 28 52 41 70 54 78 6 4 12 16 12 26 0 9 16 32 35 51
19 19 35 42 35 51 0 10 13 30 28 46 16 15 32 40 35 54 4 15 15 29 26 32 21 5
54 66 49 89 -2 8 12 27 30 42 17 15 32 34 32 42 0 8 9 22 21 32 11 9 34 45 50
78 17 34 39 70 49 79 10 9 28 36 39 58 22 45 43 79 51 87 20 18 88 130 94 154
4 16 27 54 50 85 24 31 48 70 54 87 6 18 25 55 44 83 61 93 78 122 78 136 0 8
6 18 13 22 14 9 77 125 77 143 0 6 11 28 25 50 14 22 25 46 25 54 0 7 6 19 14
25 8 7 26 38 41 69 15 31 46 95 70 142 23 47 48 103 55 125 12 37 18 54 50
130 43 102 106 377 119 518 11 117 10 119 -64 153 -63 30 -73 30 -112 -2z
m-118 -647 c-15 -45 -38 -102 -51 -127 -13 -25 -24 -48 -24 -53 0 -11 -95
-214 -126 -267 -14 -25 -55 -103 -90 -175 -36 -71 -81 -155 -99 -185 -19 -30
-42 -71 -51 -90 -10 -19 -45 -78 -79 -130 -34 -52 -73 -115 -86 -139 -13 -24
-29 -51 -34 -60 -6 -9 -28 -47 -49 -86 -48 -85 -162 -263 -186 -290 -10 -11
-31 -42 -46 -70 -15 -27 -43 -74 -63 -104 -77 -116 -111 -172 -107 -179 2 -4
-13 -25 -35 -47 -21 -22 -39 -47 -39 -56 0 -9 -7 -23 -16 -30 -9 -8 -27 -30
-39 -49 -12 -19 -34 -48 -49 -63 -14 -15 -26 -34 -26 -41 0 -7 -17 -37 -37
-68 -21 -30 -42 -62 -48 -70 -5 -9 -32 -46 -58 -83 -27 -37 -46 -74 -43 -81 3
-8 -10 -25 -30 -40 -28 -22 -34 -32 -29 -51 4 -18 0 -25 -19 -33 -14 -5 -32
-23 -40 -39 -9 -16 -39 -56 -67 -88 -28 -32 -60 -76 -70 -98 -11 -22 -32 -54
-47 -72 -15 -18 -38 -49 -52 -69 -14 -20 -42 -54 -62 -76 -21 -22 -38 -46 -38
-53 0 -7 -7 -18 -15 -25 -8 -7 -15 -19 -15 -27 0 -7 -22 -37 -50 -66 -27 -29
-50 -57 -50 -62 0 -6 -9 -16 -20 -23 -11 -7 -20 -19 -20 -28 0 -15 -20 -42
-86 -117 -13 -15 -24 -34 -24 -42 0 -9 -11 -20 -24 -26 -13 -6 -30 -22 -37
-35 -7 -14 -17 -23 -23 -21 -6 2 -21 60 -33 128 -12 68 -29 165 -38 214 -9 50
-19 104 -22 120 -2 17 -13 74 -24 128 -10 54 -19 109 -19 122 0 13 -4 27 -10
30 -5 3 -10 22 -10 41 0 44 -28 171 -46 205 -7 15 -10 29 -7 32 6 6 1 32 -32
197 -9 41 -20 100 -26 130 -14 79 -48 221 -60 250 -5 14 -11 42 -14 62 -3 20
-18 76 -34 125 -33 100 -67 216 -74 253 -9 47 -54 200 -100 340 -39 117 -50
159 -58 205 -4 28 -13 70 -20 95 -7 25 -12 80 -11 124 1 107 10 116 147 159
28 9 91 18 140 21 194 10 433 28 495 37 36 5 96 12 133 14 38 3 91 11 119 20
28 8 55 12 60 9 12 -8 251 24 312 42 27 8 64 14 82 14 18 0 36 5 39 10 3 6 16
10 28 10 13 0 33 7 45 16 13 9 31 13 42 9 11 -4 35 -2 53 3 17 5 59 15 92 22
116 24 342 96 475 151 212 89 524 265 665 375 17 13 32 19 33 13 2 -5 -8 -47
-23 -92z m-2397 -4085 c5 -15 15 -61 22 -102 6 -41 20 -115 30 -165 30 -149
42 -217 46 -270 2 -27 13 -79 23 -115 11 -36 23 -92 26 -125 4 -33 13 -74 20
-90 6 -17 10 -45 7 -63 -2 -18 5 -63 16 -100 11 -37 28 -119 37 -182 10 -63
22 -124 28 -135 5 -10 11 -35 13 -55 9 -86 12 -111 28 -205 20 -118 42 -234
55 -290 18 -72 43 -273 36 -284 -3 -6 -14 -11 -24 -11 -23 0 -41 -19 -34 -36
3 -8 0 -14 -7 -14 -7 0 -18 -7 -24 -15 -15 -20 -140 -33 -160 -16 -8 6 -17 24
-21 38 -3 15 -15 33 -27 41 -12 9 -18 22 -15 33 3 11 1 22 -4 25 -5 3 -9 18
-9 33 0 20 -6 30 -20 34 -17 4 -19 11 -14 31 5 22 2 27 -21 36 -26 10 -27 11
-11 29 11 13 14 21 7 26 -6 3 -11 17 -11 30 0 13 -4 27 -10 30 -5 3 -10 17
-10 31 0 23 -13 33 -23 17 -2 -5 -2 -2 0 5 5 22 -25 82 -41 82 -9 0 -16 7 -16
15 0 8 5 15 10 15 15 0 12 36 -5 50 -8 7 -15 24 -15 39 0 15 -6 33 -12 39 -7
7 -13 16 -14 20 0 4 -8 24 -17 44 -10 21 -17 41 -17 47 0 5 -12 16 -26 26 -20
13 -23 19 -14 30 13 16 5 35 -15 35 -19 0 -30 21 -15 30 16 10 -6 50 -59 110
-23 25 -41 48 -41 53 0 14 19 7 29 -10 15 -27 22 -10 8 20 -7 17 -20 27 -34
27 -29 0 -33 9 -34 71 -2 49 -4 54 -60 109 -36 35 -59 65 -59 78 0 12 -5 22
-10 22 -6 0 -15 11 -20 25 -5 14 -27 44 -47 66 -59 63 -59 72 -7 137 25 31 78
93 119 137 80 88 127 143 195 230 25 32 61 76 80 99 20 23 53 64 75 91 22 28
42 52 45 55 4 3 15 20 25 38 23 39 30 40 43 4z m-1558 -192 c109 -16 248 -67
353 -130 135 -81 377 -298 377 -338 0 -10 -29 -49 -65 -87 -36 -37 -65 -73
-65 -80 0 -6 -11 -18 -25 -25 -14 -7 -25 -17 -25 -22 0 -5 -32 -41 -72 -79
l-72 -70 -18 23 c-10 13 -43 57 -73 98 -30 41 -84 113 -120 160 -148 191 -228
331 -264 463 -11 42 -21 82 -21 87 0 12 7 12 90 0z m4019 -322 c-4 -27 14 -78
27 -78 8 0 14 5 14 11 0 5 4 8 8 5 5 -3 0 -40 -9 -83 -10 -43 -23 -105 -30
-138 -6 -33 -18 -74 -25 -92 -8 -17 -14 -39 -14 -50 0 -10 -6 -30 -14 -45 -8
-14 -20 -59 -26 -100 -7 -40 -19 -80 -25 -88 -7 -8 -16 -31 -20 -50 -4 -19
-11 -41 -16 -50 -19 -34 -49 -142 -49 -178 0 -21 -4 -42 -9 -47 -4 -6 -14 -39
-21 -75 -17 -87 -30 -104 -89 -124 -61 -20 -60 -20 -59 2 0 9 0 22 -2 27 -5
20 24 74 46 84 17 7 24 22 29 55 4 24 4 49 0 55 -3 6 6 21 20 33 14 13 27 30
29 38 2 8 8 28 15 45 7 16 10 37 8 47 -3 9 3 24 13 33 10 9 16 23 13 31 -3 8
-2 34 1 59 5 33 11 43 21 38 12 -4 14 2 9 28 -7 37 -7 37 -5 59 1 12 4 12 15
-3 13 -17 16 -13 40 38 15 30 24 59 22 64 -3 5 3 30 15 56 11 25 18 53 15 60
-3 8 4 25 14 38 11 14 17 32 13 45 -3 12 4 41 16 65 25 51 27 90 6 107 -21 18
-19 90 2 90 2 0 3 -6 2 -12z m-3115 -354 c77 -110 161 -254 235 -407 39 -80
71 -149 71 -153 0 -3 16 -39 36 -78 35 -69 75 -166 95 -233 5 -18 14 -35 19
-38 6 -4 10 -16 10 -29 0 -13 9 -31 20 -41 11 -10 20 -26 20 -37 0 -10 16 -58
35 -107 19 -48 35 -95 35 -103 0 -8 7 -23 15 -34 8 -10 15 -27 15 -37 0 -10 9
-37 20 -59 11 -23 20 -50 20 -59 0 -10 5 -21 10 -24 6 -3 10 -17 10 -29 0 -13
7 -37 15 -52 15 -29 14 -29 -16 -35 -16 -4 -38 -14 -49 -24 -11 -10 -26 -15
-36 -11 -9 3 -30 -2 -48 -13 -17 -10 -43 -21 -58 -25 -16 -3 -28 -11 -28 -16
0 -18 -35 -10 -51 13 -19 27 -185 312 -223 382 -14 28 -44 77 -64 110 -21 33
-52 85 -69 115 -112 206 -203 356 -358 595 -40 61 -75 116 -79 123 -5 8 50 71
158 182 91 94 166 174 166 180 0 28 33 3 74 -56z m4016 -869 c10 -25 12 -26
96 -22 47 1 88 -1 90 -5 3 -4 59 -7 125 -5 66 2 123 -1 125 -5 3 -4 15 -8 27
-8 12 0 29 -5 37 -10 13 -9 12 -13 -8 -28 -15 -12 -21 -24 -16 -35 4 -12 -1
-19 -20 -26 -27 -11 -66 -71 -45 -71 8 0 6 -7 -4 -18 -10 -10 -17 -24 -17 -30
0 -6 -12 -17 -27 -24 -17 -8 -29 -23 -31 -38 -2 -13 -32 -58 -66 -100 -67 -81
-126 -164 -126 -177 0 -4 -14 -24 -31 -43 -89 -100 -124 -143 -128 -153 -2 -7
-20 -30 -40 -53 -62 -70 -115 -135 -131 -160 -8 -13 -19 -24 -25 -24 -5 -1
-28 -24 -50 -52 -52 -68 -324 -337 -445 -442 -159 -138 -293 -211 -408 -222
-71 -7 -111 15 -143 78 -36 70 -43 115 -42 293 1 177 13 264 72 505 6 25 11
62 11 83 0 20 4 45 10 55 5 9 13 37 19 62 16 77 67 254 79 277 7 12 12 31 12
42 0 12 4 21 9 21 6 0 7 16 4 36 -3 19 -1 45 5 57 13 28 42 122 42 137 0 31
87 72 157 74 23 1 45 5 49 8 3 4 17 2 31 -3 14 -5 29 -6 35 -3 6 4 38 7 71 6
34 0 71 4 84 9 16 6 30 5 42 -3 14 -9 31 -9 63 -2 30 7 50 7 60 0 11 -7 28 -6
55 3 44 14 38 14 208 2 71 -5 133 -7 137 -5 4 3 8 14 8 25 0 28 29 23 40 -6z
m-1204 -97 c-4 -24 -9 -63 -11 -87 -1 -24 -8 -47 -14 -51 -6 -3 -17 -38 -25
-76 -7 -38 -18 -78 -23 -89 -16 -29 -63 -177 -67 -211 -2 -16 -14 -57 -26 -92
-12 -34 -20 -68 -17 -75 2 -6 0 -21 -6 -32 -6 -11 -11 -29 -13 -40 -7 -59 -37
-212 -43 -225 -4 -8 -8 -39 -9 -68 0 -30 -6 -78 -12 -108 -17 -79 -17 -288 0
-354 29 -120 88 -206 164 -242 45 -21 63 -23 175 -21 96 1 141 6 188 22 65 21
144 61 178 90 11 9 33 23 49 31 17 8 44 29 61 45 16 17 50 43 73 59 40 27 69
58 117 122 11 15 29 35 40 45 11 11 45 43 75 72 31 28 68 58 83 66 16 9 27 23
27 36 0 27 18 45 45 45 30 0 94 77 87 103 -1 5 2 6 7 3 10 -7 26 11 26 29 0 6
10 11 22 13 24 4 40 32 18 32 -13 0 -13 3 -3 20 9 14 20 19 33 16 23 -6 52 31
81 99 15 36 92 147 119 170 6 6 14 18 18 27 4 11 15 17 29 15 20 -2 23 2 21
27 -2 21 8 42 30 70 18 23 45 61 60 86 45 76 46 77 56 60 6 -8 13 -11 18 -7 4
5 1 12 -6 16 -20 13 5 54 28 46 13 -4 24 3 35 19 20 31 20 37 1 30 -8 -4 -15
-1 -15 5 0 16 42 93 61 112 9 9 19 23 21 30 3 8 8 11 12 7 8 -7 -31 -89 -47
-99 -5 -4 -7 -13 -5 -20 5 -15 47 46 95 139 22 41 25 54 15 61 -22 13 -3 38
29 38 28 0 30 -3 25 -26 -4 -14 -11 -55 -16 -90 -6 -35 -12 -67 -15 -71 -3 -4
-25 -120 -50 -256 -69 -376 -71 -582 -7 -765 25 -71 170 -259 238 -310 73 -54
91 -62 239 -101 74 -19 325 -16 395 5 30 9 96 27 145 41 105 28 161 51 185 76
11 11 62 30 81 30 18 0 68 26 181 93 61 36 138 98 138 111 0 8 10 21 23 29 12
9 47 39 77 66 30 28 58 51 63 51 7 0 5 -13 -13 -90 -5 -19 -12 -79 -16 -132
-6 -93 -6 -99 23 -160 35 -74 104 -147 169 -179 111 -53 314 -56 467 -5 43 14
84 26 93 26 8 0 17 7 20 15 6 14 97 46 144 50 14 1 30 3 35 4 6 0 22 12 37 26
15 14 33 22 41 19 8 -3 17 2 20 10 4 9 13 16 20 16 8 0 31 13 51 29 40 32 100
57 129 52 9 -1 20 5 23 13 3 9 14 16 23 16 19 0 110 65 125 89 20 32 88 91
111 97 15 4 24 12 21 19 -8 21 21 52 53 58 17 4 39 15 50 26 29 29 33 12 15
-50 -20 -65 -14 -190 10 -237 24 -47 20 -56 -34 -90 -27 -17 -50 -36 -50 -42
0 -6 -3 -9 -7 -7 -5 3 -26 -6 -48 -19 -22 -13 -62 -35 -88 -49 -26 -14 -50
-32 -53 -39 -3 -8 -17 -16 -32 -19 -22 -5 -213 -117 -247 -145 -5 -4 -18 -11
-27 -15 -10 -3 -18 -11 -18 -18 0 -6 -7 -9 -15 -5 -8 3 -27 -5 -42 -18 -16
-13 -44 -31 -63 -41 -19 -10 -65 -40 -102 -67 -36 -27 -70 -48 -75 -46 -4 1
-33 -13 -62 -32 -30 -19 -74 -46 -97 -60 -64 -38 -197 -127 -214 -143 -8 -8
-26 -20 -40 -27 -14 -7 -29 -19 -33 -26 -4 -8 -14 -14 -20 -14 -31 0 -252
-126 -315 -180 -13 -11 -30 -20 -38 -20 -19 0 -84 -32 -84 -42 0 -4 -6 -8 -14
-8 -8 0 -27 -10 -43 -22 -15 -13 -49 -34 -75 -48 -27 -13 -48 -28 -48 -32 0
-5 -9 -8 -19 -8 -11 0 -23 -5 -26 -10 -3 -5 -13 -10 -22 -10 -8 0 -34 -13 -57
-28 -22 -15 -49 -31 -58 -35 -10 -3 -18 -13 -18 -22 0 -8 -8 -15 -17 -15 -10
0 -27 -7 -37 -15 -11 -8 -28 -15 -39 -15 -10 0 -31 -8 -45 -19 -15 -10 -37
-21 -49 -25 -11 -4 -28 -18 -37 -31 -9 -14 -26 -25 -37 -25 -12 0 -32 -9 -46
-20 -14 -11 -34 -20 -44 -20 -11 0 -19 -6 -19 -14 0 -14 -21 -26 -46 -26 -8 0
-26 -7 -40 -17 -19 -12 -22 -18 -12 -25 10 -7 10 -8 -2 -7 -34 3 -51 -1 -44
-13 5 -7 3 -8 -5 -3 -8 4 -25 -1 -42 -14 -15 -11 -33 -21 -39 -21 -19 0 -105
-47 -124 -69 -10 -11 -22 -18 -27 -15 -4 2 -25 -5 -46 -16 -21 -11 -41 -20
-46 -20 -8 0 -118 -70 -127 -81 -3 -4 -16 -9 -30 -13 -73 -21 -141 -59 -152
-86 -6 -16 -12 -20 -17 -12 -5 9 -16 7 -41 -7 -19 -11 -34 -24 -33 -29 1 -6
-6 -8 -15 -5 -10 2 -35 -8 -57 -22 -21 -15 -84 -48 -139 -75 -56 -26 -112 -58
-126 -71 l-25 -24 30 -3 c40 -5 52 -18 27 -31 -15 -8 -23 -6 -37 9 -24 26 -38
25 -70 -4 -22 -20 -24 -28 -15 -50 8 -21 7 -26 -6 -26 -8 0 -28 -14 -44 -32
-33 -35 -46 -33 -36 7 4 17 17 30 36 37 17 5 30 14 30 19 0 14 -33 11 -57 -6
-11 -8 -42 -22 -69 -31 -55 -18 -97 -47 -86 -59 4 -4 -3 -4 -16 0 -15 4 -29 2
-40 -8 -9 -9 -31 -21 -47 -28 -23 -9 -26 -13 -12 -16 33 -8 17 -23 -27 -23
-33 0 -52 -7 -81 -30 -21 -16 -45 -30 -55 -30 -22 0 -74 -55 -67 -72 6 -16
-10 -39 -38 -57 -18 -10 -16 -11 13 -5 32 6 33 5 23 -15 -7 -12 -18 -21 -26
-21 -8 0 -15 -4 -15 -10 0 -5 -9 -10 -21 -10 -11 0 -29 -5 -40 -10 -14 -8 -19
-7 -19 1 0 7 -10 9 -25 7 -30 -6 -31 -3 -5 29 11 14 17 29 14 34 -8 13 -124
-52 -161 -90 -31 -32 -36 -58 -7 -47 7 3 26 -1 41 -9 24 -13 25 -15 8 -21 -11
-5 -20 -3 -23 4 -6 18 -20 14 -27 -8 -5 -15 -15 -20 -41 -20 -38 0 -44 14 -14
30 25 13 26 29 3 25 -10 -1 -17 -8 -16 -14 2 -6 -8 -8 -25 -5 -42 8 -184 -89
-168 -114 8 -13 -30 -22 -42 -10 -5 5 -14 3 -22 -7 -7 -8 -20 -15 -29 -15 -9
0 -31 -9 -50 -21 -25 -15 -31 -23 -21 -29 20 -13 1 -32 -26 -26 -14 4 -24 2
-24 -4 0 -5 6 -10 14 -10 7 0 19 -7 26 -15 16 -20 0 -20 -55 -1 -43 15 -48 13
-140 -45 -22 -14 -74 -44 -115 -67 -41 -23 -74 -46 -73 -52 2 -5 -8 -10 -22
-10 -35 0 -117 -43 -133 -70 -7 -11 -17 -18 -22 -15 -14 9 -122 -55 -117 -69
2 -6 16 -13 32 -16 25 -5 27 -6 12 -19 -12 -9 -21 -10 -29 -3 -21 16 -75 24
-95 13 -10 -6 -39 -20 -66 -31 -26 -11 -50 -26 -53 -35 -4 -8 -17 -15 -31 -15
-30 0 -163 -84 -163 -104 0 -18 -27 -29 -33 -13 -3 9 -13 8 -38 -5 -19 -9 -48
-21 -66 -26 -17 -6 -57 -27 -87 -46 -31 -20 -62 -36 -68 -36 -19 0 -78 -44
-78 -59 0 -9 -8 -11 -25 -7 -19 5 -51 -6 -123 -43 -53 -28 -140 -66 -192 -86
-51 -20 -99 -40 -105 -45 -22 -18 -231 -120 -280 -137 -27 -9 -105 -42 -172
-75 -67 -32 -128 -58 -137 -58 -8 0 -39 -11 -68 -24 -29 -13 -81 -36 -115 -51
-35 -15 -63 -32 -63 -36 0 -5 -11 -9 -24 -9 -28 0 -117 -25 -166 -48 -19 -8
-43 -17 -52 -19 -9 -1 -49 -13 -90 -26 -265 -87 -413 -122 -673 -162 -387 -59
-748 -6 -940 138 -69 52 -167 159 -195 213 -8 16 -24 45 -37 65 -46 76 -100
229 -132 374 -45 209 -39 610 13 815 8 30 20 93 26 140 7 47 18 99 25 115 25
60 37 108 39 156 0 28 6 49 12 49 9 0 22 44 40 138 2 12 0 22 -4 22 -5 0 -7
11 -4 25 2 14 8 22 13 19 5 -3 9 11 9 31 0 26 7 43 26 60 22 20 25 31 20 55
-3 17 -2 29 2 27 4 -3 8 11 9 31 1 20 11 54 22 76 26 53 44 97 45 115 1 8 7
16 15 19 10 3 11 0 5 -9 -7 -12 -5 -12 9 0 20 16 87 152 87 177 0 10 6 25 14
33 19 21 78 133 72 138 -7 8 -36 -29 -36 -46 0 -10 -7 -24 -15 -31 -29 -24
-27 -1 4 53 17 30 31 63 31 75 0 11 11 27 25 36 17 11 25 26 25 46 0 19 7 33
20 40 10 6 25 29 32 53 15 52 36 87 53 87 7 0 18 12 24 28 15 35 29 59 64 104
16 21 26 42 23 47 -4 6 3 15 14 21 11 6 20 17 20 25 0 8 5 15 10 15 18 0 11
-46 -10 -65 -22 -20 -26 -35 -10 -35 6 0 26 24 45 53 19 28 43 63 54 77 11 14
21 34 21 45 0 17 -3 16 -27 -10 -25 -26 -28 -27 -32 -10 -2 11 7 26 23 38 14
10 26 23 26 29 0 14 60 72 67 65 6 -7 0 -23 -23 -55 -15 -20 -15 -22 -1 -16
15 5 97 115 97 129 0 12 -19 3 -44 -20 -32 -30 -34 -11 -3 36 12 19 32 35 44
37 15 2 23 13 27 38 4 19 13 34 20 34 15 0 61 60 61 80 0 8 5 15 12 15 6 0 23
13 36 29 18 21 34 29 56 28 38 -1 46 10 22 32 -18 17 -18 18 3 40 11 12 38 30
59 40 29 13 35 20 28 33 -6 12 -1 22 19 40 15 12 35 23 43 23 8 0 20 7 27 15
9 11 16 12 26 4 11 -9 13 -5 9 20 -4 32 15 61 40 61 14 0 25 21 25 51 0 12 9
21 28 25 48 10 51 12 45 35 -4 14 -2 20 5 15 6 -3 27 3 46 15 33 19 41 30 37
52 -2 13 22 32 44 35 11 2 29 5 40 6 20 3 23 15 10 51 -6 16 -5 17 4 5 9 -13
11 -13 12 0 1 8 1 19 0 24 -1 5 7 6 18 3 24 -6 49 18 29 27 -7 3 1 4 19 1 18
-2 35 0 39 6 3 6 13 8 21 5 18 -7 49 9 57 30 6 15 4 15 -18 1 -28 -19 -66 -18
-66 0 0 8 8 16 18 19 9 3 25 10 34 15 10 5 24 6 31 3 8 -3 17 2 20 10 4 9 14
16 24 16 13 0 14 3 6 11 -9 9 -6 17 12 30 13 11 28 19 35 19 6 0 23 11 38 25
15 14 23 25 18 25 -5 0 -3 7 4 15 19 23 32 18 28 -12 -2 -18 -15 -36 -36 -51
-19 -13 -31 -26 -28 -29 2 -3 26 10 51 28 32 23 45 39 42 51 -3 11 2 19 13 23
10 3 24 13 31 22 12 14 10 15 -21 8 -31 -7 -33 -6 -22 8 8 9 33 17 60 19 37 2
46 6 44 20 -3 21 14 32 56 35 21 1 40 11 51 25 59 75 57 73 84 61 14 -7 32
-22 41 -35 17 -23 110 -162 178 -267 57 -85 91 -130 158 -201 34 -36 77 -82
96 -103 43 -47 137 -117 191 -141 39 -17 44 -25 78 -110 58 -144 105 -235 137
-261 25 -21 38 -25 81 -22 90 5 87 1 93 187 3 90 7 167 9 171 3 3 18 9 35 12
46 10 142 58 209 106 51 37 61 46 217 204 82 84 184 210 184 229 0 7 34 46 75
86 41 40 75 82 75 92 0 10 6 23 13 27 20 13 97 114 97 128 0 7 6 15 13 18 13
5 107 152 107 168 0 4 11 28 25 52 13 25 21 47 18 51 -4 3 -1 6 6 6 7 0 11 10
9 22 -2 14 2 23 11 23 8 0 23 13 35 28 20 27 20 29 3 38 -9 6 -17 15 -17 21 0
9 3 9 12 0 17 -17 45 3 69 50 12 24 19 51 16 66 -4 19 3 33 26 56 17 17 50 61
74 99 34 51 49 67 67 67 13 0 29 7 36 15 23 27 32 17 26 -27z m6797 -31 c15
-29 27 -58 27 -64 0 -30 34 -110 53 -124 l20 -17 -21 -36 c-12 -21 -22 -41
-22 -46 0 -5 -25 -51 -56 -102 -31 -51 -66 -109 -77 -128 -10 -19 -42 -65 -70
-102 l-52 -68 -70 0 c-86 0 -156 -18 -238 -61 -63 -33 -142 -83 -165 -106 -7
-7 -18 -13 -23 -13 -6 0 -36 -18 -66 -40 -31 -22 -60 -40 -66 -40 -5 0 -29
-13 -54 -30 -24 -16 -46 -30 -48 -30 -2 0 -24 -14 -47 -30 -24 -17 -61 -43
-83 -57 -122 -80 -146 -98 -161 -115 -10 -10 -25 -18 -34 -18 -9 0 -32 -15
-52 -33 -38 -35 -79 -57 -105 -57 -14 0 -15 10 -10 73 4 40 18 107 32 150 14
43 25 86 25 97 0 11 9 37 20 57 11 21 20 46 20 57 0 10 13 46 29 80 15 34 31
72 35 86 19 69 40 97 118 155 44 33 91 70 105 83 13 12 26 22 28 22 11 0 98
72 121 99 13 16 39 33 56 37 44 9 110 54 104 70 -3 7 -1 16 4 19 6 4 10 -1 10
-9 0 -9 4 -16 8 -16 12 0 52 39 52 51 0 6 5 7 10 4 6 -4 42 12 81 34 39 23 73
41 76 41 3 0 17 8 31 18 30 21 182 81 297 117 41 13 83 29 93 34 30 18 38 12
65 -42z m-4616 3 c18 -5 40 -6 50 -4 10 3 38 -2 62 -11 24 -8 59 -15 78 -15
18 0 59 -9 90 -20 31 -11 60 -17 65 -14 5 3 23 -1 41 -9 18 -8 56 -18 85 -22
28 -4 52 -10 52 -13 0 -8 49 -32 66 -32 6 0 45 -16 87 -35 42 -19 82 -35 91
-35 17 0 323 -154 407 -206 31 -19 61 -34 65 -34 5 0 34 -22 65 -48 30 -26 90
-69 132 -97 42 -27 76 -56 77 -63 0 -19 -29 -73 -55 -102 -12 -14 -45 -55 -73
-93 -28 -37 -77 -90 -109 -117 -197 -169 -259 -220 -269 -220 -6 0 -21 -11
-34 -25 -13 -14 -27 -25 -32 -25 -5 0 -49 -22 -97 -48 -259 -143 -550 -216
-710 -178 -157 37 -235 105 -325 284 -43 86 -64 177 -66 292 -2 119 -2 132 9
155 12 26 30 131 44 265 7 58 16 111 21 119 10 15 36 149 37 186 1 26 40 156
52 172 9 12 20 12 94 -7z m-2487 5 c0 -7 -55 -120 -73 -150 -7 -11 -24 -39
-39 -62 -14 -23 -34 -59 -44 -80 -9 -21 -23 -45 -29 -53 -7 -8 -28 -44 -47
-80 -31 -60 -158 -259 -194 -305 -37 -47 -158 -205 -199 -260 -145 -192 -359
-406 -457 -456 -64 -33 -66 -30 -71 79 -8 158 -53 549 -68 589 -5 13 -9 46 -9
72 0 27 -6 86 -14 132 -8 46 -18 111 -21 144 l-6 60 53 23 c29 13 61 28 70 33
10 5 26 9 37 9 10 0 24 6 31 14 6 8 17 13 25 10 7 -3 35 6 63 19 28 14 68 28
89 32 41 7 93 34 93 48 0 5 9 5 20 2 19 -6 82 10 106 27 5 4 20 5 32 1 12 -3
29 0 37 7 8 7 24 10 35 7 11 -3 23 -1 26 4 3 5 14 9 25 9 11 0 27 7 35 15 14
14 31 17 104 19 28 1 117 33 139 50 8 6 33 12 56 12 23 1 55 8 71 15 29 14
124 25 124 14z m-1430 -474 c0 -15 7 -68 16 -117 18 -103 33 -213 40 -299 3
-33 11 -94 18 -135 8 -41 14 -106 15 -145 2 -71 5 -108 20 -245 5 -41 5 -79 0
-84 -17 -19 -37 6 -69 90 -53 143 -82 216 -90 233 -4 9 -13 41 -20 71 -7 30
-20 73 -30 95 -27 61 -51 136 -57 175 -2 19 -8 44 -13 55 -27 59 -70 209 -65
225 3 10 19 20 36 24 25 5 29 9 24 26 -5 16 -2 20 17 19 29 -1 88 15 114 29
32 19 44 14 44 -17z m-356 -186 c8 -19 23 -38 32 -42 13 -5 15 -15 10 -50 -5
-35 3 -70 39 -180 25 -74 52 -165 61 -202 9 -36 23 -78 30 -93 8 -15 14 -35
14 -44 0 -10 10 -37 21 -61 12 -24 18 -47 15 -51 -8 -8 -137 128 -172 181 -14
21 -40 54 -58 75 -71 79 -235 330 -235 360 -1 12 2 21 7 21 21 -4 31 3 34 24
2 12 10 23 18 23 8 1 21 2 28 3 7 0 23 11 35 24 22 21 68 44 94 46 7 1 19 -15
27 -34z m6003 -192 c18 -27 49 -73 71 -105 21 -31 49 -88 61 -126 27 -84 24
-131 -20 -255 -39 -109 -38 -135 6 -167 19 -14 35 -28 35 -32 0 -13 -115 -30
-168 -24 -98 12 -151 55 -178 145 -18 59 -14 129 12 189 8 19 14 55 14 81 0
46 30 145 50 165 5 5 10 22 10 36 0 15 9 37 20 50 11 13 20 35 20 50 0 56 26
54 67 -7z m2503 -52 c-171 -145 -439 -319 -652 -421 -103 -50 -145 -61 -134
-37 3 6 9 19 12 27 3 8 39 31 79 50 41 19 75 38 75 43 0 4 9 7 20 7 11 0 23 7
26 15 4 8 12 15 20 15 8 0 19 9 26 20 8 12 24 20 40 20 18 0 33 8 43 24 9 13
25 26 35 29 11 3 20 12 20 21 0 15 12 21 33 17 16 -3 47 20 47 34 0 8 7 15 15
15 14 0 45 16 110 57 11 7 52 29 90 49 39 19 74 40 80 45 5 5 20 9 35 9 23 0
22 -2 -20 -39z"/>
<path d="M7768 9350 c-20 -11 -39 -29 -43 -40 -10 -32 4 -75 33 -102 36 -34
58 -44 122 -57 247 -50 329 -52 465 -15 91 25 97 29 125 71 25 37 28 47 18 63
-28 44 -143 43 -245 -2 -52 -23 -87 -20 -154 10 -76 35 -152 62 -199 72 -25 5
-54 12 -65 15 -11 2 -37 -4 -57 -15z"/>
</g>
</svg>
